<mxfile host="app.diagrams.net" modified="2021-01-07T10:14:06.036Z" agent="5.0 (Windows)" etag="9OMx8wSGp8ZETzEV6mwg" version="14.1.1" type="github">
  <diagram id="xW45Yyf4O0EaXW6-tF-b" name="Page-1">
    <mxGraphModel dx="1038" dy="547" grid="1" gridSize="10" guides="1" tooltips="1" connect="1" arrows="1" fold="1" page="1" pageScale="1" pageWidth="1169" pageHeight="827" math="0" shadow="0">
      <root>
        <mxCell id="0" />
        <mxCell id="1" parent="0" />
        <mxCell id="UKGL_MDzKJq9DSQoDGjI-1" value="User Assistance" style="swimlane;" vertex="1" parent="1">
          <mxGeometry x="10" y="10" width="1150" height="810" as="geometry" />
        </mxCell>
        <mxCell id="UKGL_MDzKJq9DSQoDGjI-2" value="Start" style="rounded=1;whiteSpace=wrap;html=1;" vertex="1" parent="UKGL_MDzKJq9DSQoDGjI-1">
          <mxGeometry x="210" y="60" width="120" height="60" as="geometry" />
        </mxCell>
        <mxCell id="UKGL_MDzKJq9DSQoDGjI-5" value="User requests for assistance on phone, email, walk-in, fill form on system" style="rounded=0;whiteSpace=wrap;html=1;" vertex="1" parent="UKGL_MDzKJq9DSQoDGjI-1">
          <mxGeometry x="200" y="200" width="140" height="70" as="geometry" />
        </mxCell>
        <mxCell id="UKGL_MDzKJq9DSQoDGjI-4" value="" style="edgeStyle=orthogonalEdgeStyle;rounded=0;orthogonalLoop=1;jettySize=auto;html=1;" edge="1" parent="UKGL_MDzKJq9DSQoDGjI-1" source="UKGL_MDzKJq9DSQoDGjI-2" target="UKGL_MDzKJq9DSQoDGjI-5">
          <mxGeometry relative="1" as="geometry">
            <mxPoint x="270" y="200" as="targetPoint" />
          </mxGeometry>
        </mxCell>
      </root>
    </mxGraphModel>
  </diagram>
</mxfile>
